<?xml version="1.0" encoding="utf-8"?>
<!-- Generator: Adobe Illustrator 21.0.2, SVG Export Plug-In . SVG Version: 6.00 Build 0)  -->
<svg version="1.1" id="Layer_1" xmlns="http://www.w3.org/2000/svg" xmlns:xlink="http://www.w3.org/1999/xlink" x="0px" y="0px"
	 viewBox="0 0 511.3 487.8" style="enable-background:new 0 0 511.3 487.8;" xml:space="preserve">
<style type="text/css">
	.st0{clip-path:url(#SVGID_2_);fill:#656D78;}
	.st1{clip-path:url(#SVGID_2_);fill:#ACADAF;}
	.st2{clip-path:url(#SVGID_2_);fill:#CCD1D9;}
	.st3{clip-path:url(#SVGID_2_);fill:#E6E9ED;}
	.st4{clip-path:url(#SVGID_2_);fill:#E84859;}
	.st5{clip-path:url(#SVGID_2_);fill:#F66171;}
</style>
<g>
	<defs>
		<rect id="SVGID_1_" width="511.3" height="487.8"/>
	</defs>
	<clipPath id="SVGID_2_">
		<use xlink:href="#SVGID_1_"  style="overflow:visible;"/>
	</clipPath>
	<path class="st0" d="M177.5,73.9h20H365c5.5,0,10-4.5,10-10V10c0-5.5-4.5-10-10-10H10C4.5,0,0,4.5,0,10v53.9c0,5.5,4.5,10,10,10
		H177.5z"/>
	<path class="st1" d="M343.4,31.7c-2.9,2.9-2.9,7.7,0,10.6L372.1,71c1.8-1.8,2.9-4.3,2.9-7.1V10c0-2.8-1.1-5.3-2.9-7.1L343.4,31.7z"
		/>
	<path class="st1" d="M31.7,31.7c2.9,2.9,2.9,7.7,0,10.6L2.9,71C1.1,69.2,0,66.7,0,63.9V10c0-2.8,1.1-5.3,2.9-7.1L31.7,31.7z"/>
	<path class="st2" d="M365,73.9H197.5h-20H10c-5.5,0-10-4.5-10-10v347.5c0,26.2,21.3,47.5,47.5,47.5h140h140
		c26.2,0,47.5-21.3,47.5-47.5V63.9C375,69.4,370.5,73.9,365,73.9"/>
	<path class="st1" d="M365,73.9h-20v337.5c0,26.2-21.3,47.5-47.5,47.5h30c26.2,0,47.5-21.3,47.5-47.5V63.9
		C375,69.4,370.5,73.9,365,73.9"/>
	<path class="st3" d="M275,121.4c0-4.1-3.4-7.5-7.5-7.5c-4.1,0-7.5,3.4-7.5,7.5v29.8c0,0.1,0,0.2,0,0.3c0,40-32.5,72.5-72.5,72.5
		c-40,0-72.5-32.5-72.5-72.5v0v0v-30c0-4.1-3.4-7.5-7.5-7.5c-4.1,0-7.5,3.4-7.5,7.5v30v0v0c0,48.2,39.2,87.5,87.5,87.5
		c48.1,0,87.3-39.1,87.5-87.2c0-0.1,0-0.2,0-0.3V121.4z"/>
	<path class="st4" d="M389,181c77.5,0,122.3,43.5,122.3,111.9v82.5c0,69.2-44.8,112.3-122.3,112.3c-77.9,0-122.7-43.1-122.7-112.3
		V293C266.3,224.6,311.1,181,389,181"/>
	<path class="st5" d="M387,461.5c-62.2,0-96.4-30.6-96.4-86V293c0-55.2,34.2-85.6,96.4-85.6c30.9,0,55.9,8,72.3,23.3
		C475,245.2,483,266.2,483,293v82.5C483,430.9,448.9,461.5,387,461.5"/>
	<path class="st3" d="M348.2,326.6c-20.3,0-36.7-16.5-36.7-36.7c0-20.3,16.5-36.7,36.7-36.7c20.3,0,36.7,16.5,36.7,36.7
		C384.9,310.1,368.5,326.6,348.2,326.6 M348.2,272.2c-9.7,0-17.6,7.9-17.6,17.6s7.9,17.6,17.6,17.6c9.7,0,17.6-7.9,17.6-17.6
		C365.8,280.1,357.9,272.2,348.2,272.2"/>
	<path class="st3" d="M431.4,409.7c-20.3,0-36.7-16.5-36.7-36.7c0-20.3,16.5-36.7,36.7-36.7c20.3,0,36.7,16.5,36.7,36.7
		C468.1,393.3,451.6,409.7,431.4,409.7 M431.4,355.4c-9.7,0-17.6,7.9-17.6,17.6s7.9,17.6,17.6,17.6c9.7,0,17.6-7.9,17.6-17.6
		C449,363.3,441.1,355.4,431.4,355.4"/>
	<path class="st3" d="M355.2,375.5c-2.4,0-4.9-0.9-6.8-2.8c-3.7-3.7-3.7-9.8,0-13.5l69.1-69.1c3.7-3.7,9.8-3.7,13.5,0
		c3.7,3.7,3.7,9.8,0,13.5L362,372.7C360.1,374.6,357.7,375.5,355.2,375.5"/>
</g>
</svg>
