<?xml version="1.0" encoding="utf-8"?>
<!-- Generator: Adobe Illustrator 21.0.2, SVG Export Plug-In . SVG Version: 6.00 Build 0)  -->
<svg version="1.1" id="Layer_1" xmlns="http://www.w3.org/2000/svg" xmlns:xlink="http://www.w3.org/1999/xlink" x="0px" y="0px"
	 viewBox="0 0 512 512" style="enable-background:new 0 0 512 512;" xml:space="preserve">
<style type="text/css">
	.st0{clip-path:url(#SVGID_2_);fill:#CCD1D9;}
	.st1{clip-path:url(#SVGID_2_);fill:#ACADAF;}
	.st2{clip-path:url(#SVGID_2_);fill:#E7F4FD;}
	.st3{clip-path:url(#SVGID_2_);fill:#F66171;}
	.st4{clip-path:url(#SVGID_2_);fill:#656D78;}
</style>
<g>
	<defs>
		<rect id="SVGID_1_" width="512" height="512"/>
	</defs>
	<clipPath id="SVGID_2_">
		<use xlink:href="#SVGID_1_"  style="overflow:visible;"/>
	</clipPath>
	<path class="st0" d="M503.5,512V270.4c0-34.5-20.8-65.6-52.7-78.8l-86.1-35.6h-68.3L256,196.3l-40.4-40.4h-68.3l-86.1,35.6
		c-31.9,13.2-52.7,44.3-52.7,78.8V512H503.5z"/>
	<path class="st1" d="M171.1,477.9c-55.8,0.2-111-10.7-162.6-32.1V512h494.9V292.9C450.7,401.3,321.8,477.9,171.1,477.9"/>
	<path class="st2" d="M42.1,239.5c-3.3-3.3-2-10.1,3-15.1c5-5,11.8-6.4,15.1-3c3.3,3.3,2,10.1-3,15.1
		C52.2,241.4,45.5,242.8,42.1,239.5"/>
	<path class="st3" d="M307.2,315.7h68.3v42.7c0,18.8-15.3,34.1-34.1,34.1c-18.8,0-34.1-15.3-34.1-34.1L307.2,315.7L307.2,315.7z"/>
	<path class="st3" d="M221.9,230.4l-85.3-85.3c18.9-18.9,49.4-18.9,68.3,0l51.2,51.2L221.9,230.4z"/>
	<path class="st3" d="M290.1,230.4l85.3-85.3c-18.8-18.9-49.4-18.9-68.3,0L256,196.3L290.1,230.4z"/>
	<path class="st4" d="M108.4,296.2l-12.1-12.1l-17.1,17.1c-1.6,1.6-2.5,3.8-2.5,6V512h17.1V310.7L108.4,296.2z"/>
	<path class="st4" d="M415.6,284.1l-12.1,12.1l14.6,14.6V512h17.1V307.2c0-2.3-0.9-4.4-2.5-6L415.6,284.1z"/>
	<path class="st4" d="M454,183.6l-74.3-30.7l1.8-1.8c3.3-3.3,3.3-8.7,0-12.1c-16.7-16.6-41.9-21.2-63.4-11.6l-53.6-22.2V84.5
		c23.1-4.7,38-27.2,33.3-50.3c-4.7-23.1-27.2-38-50.3-33.3c-19.9,4.1-34.1,21.5-34.1,41.8h17.1c0-14.1,11.5-25.6,25.6-25.6
		c14.1,0,25.6,11.5,25.6,25.6c0,14.1-11.5,25.6-25.6,25.6c-4.7,0-8.5,3.8-8.5,8.5v28.4l-53.6,22.2c-21.5-9.6-46.7-5-63.4,11.6
		c-3.3,3.3-3.3,8.7,0,12.1l1.8,1.8L58,183.6c-35.1,14.5-58.1,48.8-58,86.8V512h17.1V270.4c-0.1-31.1,18.7-59.1,47.4-71l80.8-33.5
		l70.5,70.5c3.3,3.3,8.7,3.3,12.1,0l19.6-19.6v90.3h17.1v-90.3l19.6,19.6c3.3,3.3,8.7,3.3,12.1,0l70.5-70.5l80.8,33.5
		c28.8,11.8,47.5,39.9,47.4,71V512H512V270.4C512.1,232.4,489.2,198.1,454,183.6 M256,120.2l45.3,18.8l-0.1,0.1L256,184.2L210.8,139
		l-0.1-0.1L256,120.2z M221.9,218.3l-72.6-72.6c15.7-10,36.3-7.8,49.5,5.4l45.2,45.2L221.9,218.3z M290.1,218.3l-22.1-22l45.2-45.2
		c13.2-13.2,33.8-15.4,49.5-5.4L290.1,218.3z"/>
	<path class="st4" d="M341.3,401.1c23.6,0,42.6-19.1,42.7-42.7v-42.7c0-4.7-3.8-8.5-8.5-8.5h-68.3c-4.7,0-8.5,3.8-8.5,8.5v42.7
		C298.7,382,317.8,401,341.3,401.1 M315.7,324.3h51.2v34.1c0,14.1-11.5,25.6-25.6,25.6c-14.1,0-25.6-11.5-25.6-25.6V324.3z"/>
	<rect x="332.8" y="341.3" class="st4" width="17.1" height="17.1"/>
	<rect x="247.5" y="324.3" class="st4" width="17.1" height="17.1"/>
	<rect x="247.5" y="494.9" class="st4" width="17.1" height="17.1"/>
	<rect x="247.5" y="358.4" class="st4" width="17.1" height="119.5"/>
	<polygon class="st1" points="17.1,119.5 34.1,119.5 34.1,102.4 51.2,102.4 51.2,85.3 34.1,85.3 34.1,68.3 17.1,68.3 17.1,85.3 
		0,85.3 0,102.4 17.1,102.4 	"/>
	<polygon class="st1" points="128,0 128,17.1 110.9,17.1 110.9,34.1 128,34.1 128,51.2 145.1,51.2 145.1,34.1 162.1,34.1 
		162.1,17.1 145.1,17.1 145.1,0 	"/>
	<polygon class="st1" points="494.9,68.3 477.9,68.3 477.9,85.3 460.8,85.3 460.8,102.4 477.9,102.4 477.9,119.5 494.9,119.5 
		494.9,102.4 512,102.4 512,85.3 494.9,85.3 	"/>
	<polygon class="st1" points="366.9,0 366.9,17.1 349.9,17.1 349.9,34.1 366.9,34.1 366.9,51.2 384,51.2 384,34.1 401.1,34.1 
		401.1,17.1 384,17.1 384,0 	"/>
</g>
</svg>
