<?xml version="1.0" encoding="utf-8"?>
<!-- Generator: Adobe Illustrator 21.0.2, SVG Export Plug-In . SVG Version: 6.00 Build 0)  -->
<svg version="1.1" id="Layer_1" xmlns="http://www.w3.org/2000/svg" xmlns:xlink="http://www.w3.org/1999/xlink" x="0px" y="0px"
	 viewBox="0 0 515 367.2" style="enable-background:new 0 0 515 367.2;" xml:space="preserve">
<style type="text/css">
	.st0{clip-path:url(#SVGID_2_);fill:#5D9CEC;}
	.st1{clip-path:url(#SVGID_2_);fill:#4A89DC;}
	.st2{clip-path:url(#SVGID_2_);fill:#ED5565;}
	.st3{clip-path:url(#SVGID_2_);fill:#DA4453;}
	.st4{clip-path:url(#SVGID_2_);fill:#CCD1D9;}
	.st5{clip-path:url(#SVGID_2_);fill:none;stroke:#CCD1D9;stroke-width:6;stroke-miterlimit:10;}
	.st6{clip-path:url(#SVGID_2_);fill:#ACADAF;}
	.st7{clip-path:url(#SVGID_2_);fill:#656D78;}
</style>
<g>
	<defs>
		<rect id="SVGID_1_" width="515" height="367.2"/>
	</defs>
	<clipPath id="SVGID_2_">
		<use xlink:href="#SVGID_1_"  style="overflow:visible;"/>
	</clipPath>
	<path class="st0" d="M417.5,119.7h-32.2l-6.5,75h38.8c23,0,33.3,11.9,44.3,24.5c10.4,11.9,22.2,25.5,44.5,25.5h6.9l0.6-6.8
		c0.8-8.8,1.2-16.2,1.2-20.7C515,163.4,471.3,119.7,417.5,119.7"/>
	<path class="st1" d="M417.5,119.7h-30c53.8,0,97.5,43.7,97.5,97.5c0,4.5-0.5,11.9-1.2,20.7l-0.1,1.1c6.2,3.5,13.6,5.7,22.6,5.7h6.9
		l0.6-6.8c0.8-8.8,1.2-16.2,1.2-20.7C515,163.4,471.3,119.7,417.5,119.7"/>
	<path class="st2" d="M395,7.4c0-0.1,0-0.2,0-0.3c0-0.2,0-0.3,0-0.5c0-0.1,0-0.2,0-0.3c0-0.1,0-0.3-0.1-0.4c0-0.1-0.1-0.2-0.1-0.3
		c0-0.1-0.1-0.3-0.1-0.4c0-0.1-0.1-0.2-0.1-0.3c0-0.1-0.1-0.2-0.1-0.4c-0.1-0.1-0.1-0.2-0.2-0.4c0-0.1-0.1-0.2-0.1-0.3
		c-0.1-0.1-0.2-0.3-0.3-0.4c0-0.1-0.1-0.1-0.1-0.2c-0.1-0.2-0.2-0.3-0.4-0.5c0,0,0-0.1-0.1-0.1c-0.6-0.7-1.3-1.3-2.2-1.8
		c0,0,0,0,0,0c-0.2-0.1-0.4-0.2-0.5-0.3c0,0-0.1,0-0.1-0.1c-0.1-0.1-0.3-0.1-0.5-0.2c-0.1,0-0.2-0.1-0.3-0.1c-0.1,0-0.3-0.1-0.4-0.1
		c-0.1,0-0.2-0.1-0.4-0.1c-0.1,0-0.2,0-0.3-0.1c-0.1,0-0.3,0-0.4-0.1c0,0,0,0-0.1,0c-0.1,0-0.2,0-0.4,0c-0.1,0-0.2,0-0.3,0h-0.1h0
		H281h-47H114h0c-3.5,0-6.6,2.5-7.3,5.9c0,0,0,0.1,0,0.1c0,0.2-0.1,0.4-0.1,0.6c0,0.1,0,0.1,0,0.2c0,0,0,0,0,0L84.3,236.4
		c0,0,0,0,0,0l-0.1,0.8l0,0c0,4.1,3.4,7.5,7.5,7.5h275.7c0,0,0,0,0,0c0.3,0,0.5,0,0.7,0c0,0,0.1,0,0.1,0c0.2,0,0.4-0.1,0.6-0.1
		c0.1,0,0.2,0,0.2-0.1c0.1,0,0.3-0.1,0.4-0.1c0.1,0,0.2-0.1,0.3-0.1c0.1,0,0.3-0.1,0.4-0.1c0.1,0,0.2-0.1,0.3-0.1
		c0.1-0.1,0.2-0.1,0.3-0.2c0.1-0.1,0.2-0.1,0.3-0.2c0.1-0.1,0.2-0.1,0.3-0.2c0.1-0.1,0.2-0.1,0.3-0.2c0.1-0.1,0.2-0.1,0.3-0.2
		c0.1-0.1,0.2-0.1,0.3-0.2c0.1-0.1,0.2-0.2,0.3-0.3c0.1-0.1,0.2-0.1,0.2-0.2c0.1-0.1,0.2-0.2,0.3-0.3c0.1-0.1,0.1-0.2,0.2-0.2
		c0.1-0.1,0.2-0.2,0.2-0.3c0.1-0.1,0.1-0.2,0.2-0.2c0.1-0.1,0.1-0.2,0.2-0.3c0.1-0.1,0.1-0.2,0.1-0.3c0.1-0.1,0.1-0.2,0.2-0.4
		c0-0.1,0.1-0.2,0.1-0.3c0-0.1,0.1-0.2,0.1-0.4c0-0.1,0.1-0.2,0.1-0.3c0-0.1,0.1-0.2,0.1-0.4c0-0.1,0.1-0.2,0.1-0.4
		c0-0.1,0-0.2,0.1-0.4c0-0.1,0-0.2,0.1-0.4c0,0,0,0,0-0.1L395,8.3c0,0,0,0,0-0.1l0-0.1c0-0.1,0-0.1,0-0.2C395,7.8,395,7.7,395,7.4
		C395,7.5,395,7.4,395,7.4"/>
	<path class="st3" d="M395,7.4c0-0.1,0-0.2,0-0.3c0-0.2,0-0.3,0-0.5c0-0.1,0-0.2,0-0.3c0-0.1,0-0.3-0.1-0.4c0-0.1-0.1-0.2-0.1-0.3
		c0-0.1-0.1-0.3-0.1-0.4c0-0.1-0.1-0.2-0.1-0.3c0-0.1-0.1-0.2-0.1-0.4c-0.1-0.1-0.1-0.2-0.2-0.4c0-0.1-0.1-0.2-0.1-0.3
		c-0.1-0.1-0.2-0.3-0.3-0.4c0-0.1-0.1-0.1-0.1-0.2c-0.1-0.2-0.2-0.3-0.4-0.5c0,0,0-0.1-0.1-0.1c-0.6-0.7-1.3-1.3-2.2-1.8
		c0,0,0,0,0,0c-0.2-0.1-0.4-0.2-0.5-0.3c0,0-0.1,0-0.1-0.1c-0.1-0.1-0.3-0.1-0.5-0.2c-0.1,0-0.2-0.1-0.3-0.1c-0.1,0-0.3-0.1-0.4-0.1
		c-0.1,0-0.2-0.1-0.4-0.1c-0.1,0-0.2,0-0.3-0.1c-0.1,0-0.3,0-0.4-0.1c0,0,0,0-0.1,0c-0.1,0-0.2,0-0.4,0c-0.1,0-0.2,0-0.3,0h-0.1h0
		h-29.9c0.1,0,0.2,0,0.3,0c0.1,0,0.2,0,0.4,0c0,0,0,0,0.1,0c0.1,0,0.3,0,0.4,0.1c0.1,0,0.2,0,0.3,0.1c0.1,0,0.2,0.1,0.4,0.1
		c0.1,0,0.3,0.1,0.4,0.1c0.1,0,0.2,0.1,0.3,0.1c0.2,0.1,0.3,0.1,0.5,0.2c0,0,0.1,0,0.1,0.1c0.2,0.1,0.4,0.2,0.5,0.3c0,0,0,0,0,0
		c0.8,0.5,1.6,1.1,2.2,1.8c0,0,0,0.1,0.1,0.1c0.1,0.2,0.3,0.3,0.4,0.5c0,0.1,0.1,0.1,0.1,0.2c0.1,0.1,0.2,0.3,0.3,0.4
		c0.1,0.1,0.1,0.2,0.1,0.3c0.1,0.1,0.1,0.2,0.2,0.4c0,0.1,0.1,0.2,0.1,0.4c0,0.1,0.1,0.2,0.1,0.3c0,0.1,0.1,0.3,0.1,0.4
		c0,0.1,0.1,0.2,0.1,0.3c0,0.1,0,0.3,0.1,0.4c0,0.1,0,0.2,0,0.3c0,0.1,0,0.3,0,0.5c0,0.1,0,0.2,0,0.3c0,0,0,0.1,0,0.1
		c0,0.2,0,0.3,0,0.5c0,0.1,0,0.1,0,0.2l0,0.1c0,0,0,0,0,0.1l-20,229.5c0,0,0,0,0,0.1c0,0.1,0,0.2-0.1,0.4c0,0.1,0,0.2-0.1,0.4
		c0,0.1-0.1,0.2-0.1,0.4c0,0.1-0.1,0.2-0.1,0.4c0,0.1-0.1,0.2-0.1,0.3c0,0.1-0.1,0.2-0.1,0.4c0,0.1-0.1,0.2-0.1,0.3
		c-0.1,0.1-0.1,0.2-0.2,0.4c0,0.1-0.1,0.2-0.1,0.3c-0.1,0.1-0.1,0.2-0.2,0.3c-0.1,0.1-0.1,0.2-0.2,0.2c-0.1,0.1-0.2,0.2-0.2,0.3
		c-0.1,0.1-0.1,0.2-0.2,0.2c-0.1,0.1-0.2,0.2-0.3,0.3c-0.1,0.1-0.1,0.2-0.2,0.2c-0.1,0.1-0.2,0.2-0.3,0.3c-0.1,0.1-0.2,0.1-0.3,0.2
		c-0.1,0.1-0.2,0.1-0.3,0.2c-0.1,0.1-0.2,0.1-0.3,0.2c-0.1,0.1-0.2,0.1-0.3,0.2c-0.1,0.1-0.2,0.1-0.3,0.2c-0.1,0.1-0.2,0.1-0.3,0.2
		c-0.1,0-0.2,0.1-0.3,0.1c-0.1,0.1-0.2,0.1-0.4,0.1c-0.1,0-0.2,0.1-0.3,0.1c-0.1,0-0.3,0.1-0.4,0.1c-0.1,0-0.2,0-0.2,0.1
		c-0.2,0-0.4,0.1-0.6,0.1c0,0-0.1,0-0.1,0c-0.2,0-0.5,0-0.7,0h30c0,0,0,0,0,0c0.3,0,0.5,0,0.7,0c0,0,0.1,0,0.1,0
		c0.2,0,0.4-0.1,0.6-0.1c0.1,0,0.2,0,0.2-0.1c0.1,0,0.3-0.1,0.4-0.1c0.1,0,0.2-0.1,0.3-0.1c0.1,0,0.3-0.1,0.4-0.1
		c0.1,0,0.2-0.1,0.3-0.1c0.1-0.1,0.2-0.1,0.3-0.2c0.1-0.1,0.2-0.1,0.3-0.2c0.1-0.1,0.2-0.1,0.3-0.2c0.1-0.1,0.2-0.1,0.3-0.2
		c0.1-0.1,0.2-0.1,0.3-0.2c0.1-0.1,0.2-0.1,0.3-0.2c0.1-0.1,0.2-0.2,0.3-0.3c0.1-0.1,0.2-0.1,0.2-0.2c0.1-0.1,0.2-0.2,0.3-0.3
		c0.1-0.1,0.1-0.2,0.2-0.2c0.1-0.1,0.2-0.2,0.2-0.3c0.1-0.1,0.1-0.2,0.2-0.2c0.1-0.1,0.1-0.2,0.2-0.3c0.1-0.1,0.1-0.2,0.1-0.3
		c0.1-0.1,0.1-0.2,0.2-0.4c0-0.1,0.1-0.2,0.1-0.3c0-0.1,0.1-0.2,0.1-0.4c0-0.1,0.1-0.2,0.1-0.3c0-0.1,0.1-0.2,0.1-0.4
		c0-0.1,0.1-0.2,0.1-0.4c0-0.1,0-0.2,0.1-0.4c0-0.1,0-0.2,0.1-0.4c0,0,0,0,0-0.1L395,8.3c0,0,0,0,0-0.1l0-0.1c0-0.1,0-0.1,0-0.2
		C395,7.8,395,7.7,395,7.4C395,7.5,395,7.4,395,7.4"/>
	<path class="st4" d="M417.5,194.7c2.5,0,4.8,0.1,6.9,0.4l6.5-74.5c-4.4-0.6-8.9-0.9-13.4-0.9h-1.6l-6.5,75L417.5,194.7L417.5,194.7
		z"/>
	<path class="st4" d="M154,184.7H64c-4.1,0-7.5-3.4-7.5-7.5c0-4.1,3.4-7.5,7.5-7.5h90c4.1,0,7.5,3.4,7.5,7.5
		C161.5,181.3,158.1,184.7,154,184.7"/>
	<path class="st5" d="M154,184.7H64c-4.1,0-7.5-3.4-7.5-7.5c0-4.1,3.4-7.5,7.5-7.5h90c4.1,0,7.5,3.4,7.5,7.5
		C161.5,181.3,158.1,184.7,154,184.7z"/>
	<path class="st4" d="M74,134.7H37.3c-4.1,0-7.5-3.4-7.5-7.5c0-4.1,3.4-7.5,7.5-7.5H74c4.1,0,7.5,3.4,7.5,7.5
		C81.5,131.3,78.1,134.7,74,134.7"/>
	<path class="st5" d="M74,134.7H37.3c-4.1,0-7.5-3.4-7.5-7.5c0-4.1,3.4-7.5,7.5-7.5H74c4.1,0,7.5,3.4,7.5,7.5
		C81.5,131.3,78.1,134.7,74,134.7z"/>
	<path class="st4" d="M194,74.7H10.5c-4.1,0-7.5-3.4-7.5-7.5c0-4.1,3.4-7.5,7.5-7.5H194c4.1,0,7.5,3.4,7.5,7.5
		C201.5,71.3,198.2,74.7,194,74.7"/>
	<path class="st5" d="M194,74.7H10.5c-4.1,0-7.5-3.4-7.5-7.5c0-4.1,3.4-7.5,7.5-7.5H194c4.1,0,7.5,3.4,7.5,7.5
		C201.5,71.3,198.2,74.7,194,74.7z"/>
	<path class="st4" d="M513.8,237.9l-0.6,6.5C513.4,242.2,513.6,240.1,513.8,237.9C513.8,238,513.8,238,513.8,237.9
		C513.8,238,513.8,237.9,513.8,237.9"/>
	<path class="st4" d="M506.3,244.7c-22.3,0-34.1-13.5-44.5-25.5c-11-12.6-21.3-24.5-44.3-24.5h-38.8l-3.8,43.1c0,0,0,0,0,0.1
		c0,0.1,0,0.2-0.1,0.4c0,0.1,0,0.2-0.1,0.4c0,0.1-0.1,0.2-0.1,0.4c0,0.1-0.1,0.2-0.1,0.4c0,0.1-0.1,0.2-0.1,0.3
		c0,0.1-0.1,0.2-0.1,0.4c0,0.1-0.1,0.2-0.1,0.3c-0.1,0.1-0.1,0.2-0.2,0.4c0,0.1-0.1,0.2-0.1,0.3c-0.1,0.1-0.1,0.2-0.2,0.3
		c-0.1,0.1-0.1,0.2-0.2,0.2c-0.1,0.1-0.2,0.2-0.2,0.3c-0.1,0.1-0.1,0.2-0.2,0.2c-0.1,0.1-0.2,0.2-0.3,0.3c-0.1,0.1-0.1,0.2-0.2,0.2
		c-0.1,0.1-0.2,0.2-0.3,0.3c-0.1,0.1-0.2,0.1-0.3,0.2c-0.1,0.1-0.2,0.1-0.3,0.2c-0.1,0.1-0.2,0.1-0.3,0.2c-0.1,0.1-0.2,0.1-0.3,0.2
		c-0.1,0.1-0.2,0.1-0.3,0.2c-0.1,0.1-0.2,0.1-0.3,0.2c-0.1,0-0.2,0.1-0.3,0.1c-0.1,0.1-0.2,0.1-0.4,0.1c-0.1,0-0.2,0.1-0.3,0.1
		c-0.1,0-0.3,0.1-0.4,0.1c-0.1,0-0.2,0-0.2,0.1c-0.2,0-0.4,0.1-0.6,0.1c0,0-0.1,0-0.1,0c-0.2,0-0.5,0-0.7,0c0,0,0,0,0,0H91.8
		c-4.1,0-7.5-3.3-7.5-7.5l0,0l-7.7,79.2c0,0,0,0,0,0l0,0c0,0.1,0,0.2,0,0.3c0,0.1,0,0.3,0,0.4c0,0,0,0,0,0c0,0.2,0,0.4,0,0.6
		c0,0.1,0,0.1,0,0.2c0,0.2,0.1,0.4,0.1,0.6c0,0.1,0,0.1,0,0.2c0,0.1,0.1,0.3,0.1,0.4c0,0.1,0,0.2,0.1,0.3c0,0,0,0.1,0,0.1
		c0.4,1.1,1,2.1,1.8,2.9c0,0,0,0,0,0c0.1,0.1,0.2,0.2,0.3,0.2c0.5,0.5,1.1,0.9,1.7,1.2c0.1,0.1,0.3,0.1,0.4,0.2c0,0,0.1,0,0.1,0
		c0.2,0.1,0.4,0.1,0.6,0.2c0,0,0,0,0.1,0c0.2,0.1,0.4,0.1,0.7,0.2c0,0,0.1,0,0.1,0c0.2,0,0.4,0.1,0.7,0.1c0,0,0,0,0,0
		c0.2,0,0.5,0,0.7,0c0,0,0,0,0,0h28.7h11.7h333.1h11.8h28.2c0,0,0,0,0,0c0.3,0,0.5,0,0.7,0c0,0,0.1,0,0.1,0c0.2,0,0.4-0.1,0.6-0.1
		c0.1,0,0.2,0,0.2-0.1c0.1,0,0.3-0.1,0.4-0.1c0.1,0,0.2-0.1,0.3-0.1c0.1,0,0.2-0.1,0.4-0.1c0.1,0,0.2-0.1,0.3-0.1
		c0.1-0.1,0.2-0.1,0.3-0.2c0.1-0.1,0.2-0.1,0.3-0.2c0.1-0.1,0.2-0.1,0.3-0.2c0.1-0.1,0.2-0.1,0.3-0.2c0.1-0.1,0.2-0.1,0.3-0.2
		c0.1-0.1,0.2-0.1,0.2-0.2c0.1-0.1,0.2-0.2,0.3-0.3c0.1-0.1,0.1-0.1,0.2-0.2c0.1-0.1,0.2-0.2,0.3-0.3c0.1-0.1,0.1-0.1,0.2-0.2
		c0.1-0.1,0.2-0.3,0.3-0.4c0,0,0.1-0.1,0.1-0.1c0.1-0.2,0.2-0.4,0.3-0.6c0,0,0,0,0,0c0.1-0.2,0.2-0.4,0.3-0.6c0-0.1,0-0.1,0.1-0.2
		c0.1-0.2,0.1-0.3,0.2-0.5c0-0.1,0.1-0.2,0.1-0.3c0-0.1,0.1-0.2,0.1-0.4c0-0.1,0-0.2,0.1-0.3c0-0.1,0-0.2,0.1-0.3
		c0.3-2.4,5.4-43.2,8.2-73.4L506.3,244.7z"/>
	<path class="st6" d="M506.3,244.7c-9.1,0-16.4-2.2-22.6-5.7c-2.8,30.2-8.5,76.8-8.8,79.1c0,0.1,0,0.2-0.1,0.3c0,0.1,0,0.2-0.1,0.3
		c0,0.1-0.1,0.3-0.1,0.4c0,0.1-0.1,0.2-0.1,0.3c-0.1,0.2-0.1,0.3-0.2,0.5c0,0.1,0,0.1-0.1,0.2c-0.1,0.2-0.2,0.4-0.3,0.6c0,0,0,0,0,0
		c-0.1,0.2-0.2,0.4-0.3,0.6c0,0-0.1,0.1-0.1,0.1c-0.1,0.1-0.2,0.3-0.3,0.4c-0.1,0.1-0.1,0.1-0.2,0.2c-0.1,0.1-0.2,0.2-0.3,0.3
		c-0.1,0.1-0.1,0.1-0.2,0.2c-0.1,0.1-0.2,0.2-0.3,0.3c-0.1,0.1-0.2,0.1-0.2,0.2c-0.1,0.1-0.2,0.2-0.3,0.2c-0.1,0.1-0.2,0.1-0.3,0.2
		c-0.1,0.1-0.2,0.1-0.3,0.2c-0.1,0.1-0.2,0.1-0.3,0.2c-0.1,0.1-0.2,0.1-0.3,0.2c-0.1,0-0.2,0.1-0.3,0.1c-0.1,0-0.2,0.1-0.4,0.1
		c-0.1,0-0.2,0.1-0.3,0.1c-0.1,0-0.3,0.1-0.4,0.1c-0.1,0-0.2,0-0.2,0.1c-0.2,0-0.4,0.1-0.6,0.1c0,0-0.1,0-0.1,0c-0.2,0-0.5,0-0.7,0
		h1.8h28.2c0,0,0,0,0,0c0.3,0,0.5,0,0.7,0c0,0,0.1,0,0.1,0c0.2,0,0.4-0.1,0.6-0.1c0.1,0,0.2,0,0.2-0.1c0.1,0,0.3-0.1,0.4-0.1
		c0.1,0,0.2-0.1,0.3-0.1c0.1,0,0.2-0.1,0.4-0.1c0.1,0,0.2-0.1,0.3-0.1c0.1-0.1,0.2-0.1,0.3-0.2c0.1-0.1,0.2-0.1,0.3-0.2
		c0.1-0.1,0.2-0.1,0.3-0.2c0.1-0.1,0.2-0.1,0.3-0.2c0.1-0.1,0.2-0.1,0.3-0.2c0.1-0.1,0.2-0.1,0.2-0.2c0.1-0.1,0.2-0.2,0.3-0.3
		c0.1-0.1,0.1-0.1,0.2-0.2c0.1-0.1,0.2-0.2,0.3-0.3c0.1-0.1,0.1-0.1,0.2-0.2c0.1-0.1,0.2-0.3,0.3-0.4c0,0,0.1-0.1,0.1-0.1
		c0.1-0.2,0.2-0.4,0.3-0.6c0,0,0,0,0,0c0.1-0.2,0.2-0.4,0.3-0.6c0-0.1,0-0.1,0.1-0.2c0.1-0.2,0.1-0.3,0.2-0.5c0-0.1,0.1-0.2,0.1-0.3
		c0-0.1,0.1-0.2,0.1-0.4c0-0.1,0-0.2,0.1-0.3c0-0.1,0-0.2,0.1-0.3c0.3-2.4,5.4-43.2,8.2-73.4H506.3z"/>
	<path class="st6" d="M483.7,239"/>
	<path class="st7" d="M174,367.2c-27.6,0-50-22.4-50-50c0-27.6,22.4-50,50-50c27.6,0,50,22.4,50,50C224,344.7,201.6,367.2,174,367.2
		"/>
	<path class="st4" d="M174,337.2c-11,0-20-9-20-20c0-11,9-20,20-20s20,9,20,20C194,328.2,185,337.2,174,337.2"/>
	<path class="st7" d="M407.5,367.2c-27.6,0-50-22.4-50-50c0-27.6,22.4-50,50-50c27.6,0,50,22.4,50,50
		C457.5,344.7,435.1,367.2,407.5,367.2"/>
	<path class="st4" d="M407.5,337.2c-11,0-20-9-20-20c0-11,9-20,20-20c11,0,20,9,20,20C427.5,328.2,418.5,337.2,407.5,337.2"/>
</g>
</svg>
